<svg xmlns="http://www.w3.org/2000/svg" data-name="Layer 1" viewBox="0 0 96 120" x="0px" y="0px"><path d="M90.193,7.205H5.807A4.312,4.312,0,0,0,1.5,11.512V61.939a4.312,4.312,0,0,0,4.307,4.307H37.713c-.219,7.739-1.165,11.7-3.355,14.069H30.081a4.245,4.245,0,0,0-4.24,4.24v2.973A1.266,1.266,0,0,0,27.107,88.8H68.893a1.266,1.266,0,0,0,1.266-1.267V84.555a4.245,4.245,0,0,0-4.24-4.24H61.642c-2.19-2.365-3.136-6.33-3.355-14.069H90.193A4.312,4.312,0,0,0,94.5,61.939V11.512A4.312,4.312,0,0,0,90.193,7.205ZM58.5,80.315h-21c1.974-3.278,2.582-7.962,2.747-14.069H44.44v2.07a3.56,3.56,0,0,0,7.12,0v-2.07h4.192C55.917,72.353,56.525,77.037,58.5,80.315Zm-11.526-12v-2.07h2.054v2.07a1.027,1.027,0,0,1-2.054,0ZM91.967,56.9H4.033V11.512A1.776,1.776,0,0,1,5.807,9.738H36.763l3.227,4.047a1.269,1.269,0,0,0,.991.476H55.02a1.268,1.268,0,0,0,.99-.476l3.227-4.047H90.193a1.776,1.776,0,0,1,1.774,1.774ZM32.15,43.635a12.17,12.17,0,0,1-6.1,1.645,12.346,12.346,0,0,1-3.19-.422A12.245,12.245,0,0,1,27.25,20.847a1.267,1.267,0,0,1,1.132,1.392l-1.021,9.708,9.714,1.369a1.266,1.266,0,0,1,1.077,1.433,12.32,12.32,0,0,1-.3,1.451A12.167,12.167,0,0,1,32.15,43.635ZM29.325,29.3l.837-7.95a1.267,1.267,0,0,1,1.794-1.016,14.059,14.059,0,0,1,7.82,9.971,1.267,1.267,0,0,1-1.242,1.514,1.317,1.317,0,0,1-.177-.013l-7.949-1.119A1.268,1.268,0,0,1,29.325,29.3ZM8.108,16.405a1.267,1.267,0,0,1,1.267-1.267h8.08a1.267,1.267,0,0,1,0,2.533H9.375A1.266,1.266,0,0,1,8.108,16.405Zm0,4.58a1.266,1.266,0,0,1,1.267-1.266h6.072a1.267,1.267,0,1,1,0,2.533H9.375A1.267,1.267,0,0,1,8.108,20.985Zm46.943,1.99a1.266,1.266,0,0,1-1.267,1.266H45.748l-3.83,2.211a1.266,1.266,0,1,1-1.266-2.193l4.123-2.381a1.27,1.27,0,0,1,.633-.17h8.376A1.267,1.267,0,0,1,55.051,22.975ZM54.5,27.721a1.266,1.266,0,0,1-1.267,1.266H45.854a1.267,1.267,0,0,1,0-2.533h7.379A1.267,1.267,0,0,1,54.5,27.721Zm0,5a1.266,1.266,0,0,1-1.267,1.266H45.854a1.267,1.267,0,0,1,0-2.533h7.379A1.267,1.267,0,0,1,54.5,32.716Zm23.424-.24v18.5a1.266,1.266,0,0,1-1.266,1.266h-5.7a1.266,1.266,0,0,1-1.267-1.266v-18.5a1.266,1.266,0,0,1,1.267-1.266h5.7A1.266,1.266,0,0,1,77.924,32.476Zm10.867,7.6v10.9a1.266,1.266,0,0,1-1.266,1.266h-5.7a1.266,1.266,0,0,1-1.267-1.266v-10.9a1.267,1.267,0,0,1,1.267-1.267h5.7A1.266,1.266,0,0,1,88.791,40.074ZM67.057,36.5V50.972a1.266,1.266,0,0,1-1.266,1.266h-5.7a1.266,1.266,0,0,1-1.267-1.266V36.5a1.267,1.267,0,0,1,1.267-1.267h5.7A1.266,1.266,0,0,1,67.057,36.5Zm-7.484-8.357a3.365,3.365,0,0,1,5.737-2.39l5.133-2.193c0-.02,0-.04,0-.06a3.368,3.368,0,1,1,6.591.973l6.012,4.851a3.371,3.371,0,1,1-1.591,1.97l-6.013-4.85a3.36,3.36,0,0,1-4-.554l-5.133,2.193c0,.02,0,.039,0,.06a3.368,3.368,0,0,1-6.735,0Zm19.68-7.75a1.267,1.267,0,0,1,1.267-1.267h6.734a1.267,1.267,0,1,1,0,2.533H80.52A1.266,1.266,0,0,1,79.253,20.393Zm9.268,4.38a1.266,1.266,0,0,1-1.267,1.266H83.405a1.267,1.267,0,0,1,0-2.533h3.849A1.267,1.267,0,0,1,88.521,24.773ZM7.209,43.513a1.266,1.266,0,0,1,1.266-1.266H12.1l1.773-1.773a1.266,1.266,0,0,1,1.791,1.791l-2.144,2.144a1.264,1.264,0,0,1-.895.371H8.475A1.266,1.266,0,0,1,7.209,43.513Zm0,3.954A1.266,1.266,0,0,1,8.475,46.2H18.561a1.267,1.267,0,0,1,0,2.533H8.475A1.266,1.266,0,0,1,7.209,47.467ZM25.476,51.42a1.266,1.266,0,0,1-1.267,1.266H8.475a1.267,1.267,0,0,1,0-2.533H24.209A1.267,1.267,0,0,1,25.476,51.42ZM54.5,42.085a1.266,1.266,0,0,1-1.267,1.266h-8a1.267,1.267,0,0,1,0-2.533h8A1.267,1.267,0,0,1,54.5,42.085Zm0,4.667a1.267,1.267,0,0,1-1.267,1.267H40.4a1.267,1.267,0,0,1,0-2.533H53.233A1.266,1.266,0,0,1,54.5,46.752Zm0,4.668a1.266,1.266,0,0,1-1.267,1.266H35.62a1.267,1.267,0,1,1,0-2.533H53.233A1.267,1.267,0,0,1,54.5,51.42Zm-14.576-10.6h1.951a1.267,1.267,0,1,1,0,2.533H39.924a1.267,1.267,0,1,1,0-2.533Z"/></svg>