<svg xmlns="http://www.w3.org/2000/svg" xmlns:xlink="http://www.w3.org/1999/xlink" version="1.1" x="0px" y="0px" viewBox="0 0 64 80" style="enable-background:new 0 0 64 64;" xml:space="preserve"><g><g><g><g><g><g><path d="M42.228,50.061H21.17c-1.923,0-3.487-1.558-3.487-3.474V17.831c0-1.915,1.564-3.473,3.487-3.473h16.179        c0.249,0,0.488,0.093,0.673,0.26l7.366,6.692c0.208,0.189,0.327,0.458,0.327,0.74v24.537        C45.715,48.502,44.15,50.061,42.228,50.061z M21.17,16.357c-0.82,0-1.487,0.661-1.487,1.473v28.756        c0,0.813,0.667,1.474,1.487,1.474h21.058c0.82,0,1.487-0.661,1.487-1.474V22.492l-6.753-6.135H21.17z"/><path d="M44.706,23.05H38.88c-1.396,0-2.531-1.132-2.531-2.523v-5.169c0-0.552,0.447-1,1-1s1,0.448,1,1v5.169        c0,0.289,0.238,0.523,0.531,0.523h5.826c0.553,0,1,0.448,1,1S45.259,23.05,44.706,23.05z"/></g></g></g><g><path d="M47.326,59.629H33.397c-0.553,0-1-0.448-1-1s0.447-1,1-1h13.929c2.577,0,4.674-2.083,4.674-4.643V47.14      c0-0.552,0.447-1,1-1s1,0.448,1,1v5.847C54,56.649,51.006,59.629,47.326,59.629z"/><path d="M36.399,63c-0.224,0-0.448-0.075-0.635-0.228l-4.124-3.397c-0.231-0.191-0.365-0.476-0.364-0.776      s0.137-0.584,0.37-0.773l4.124-3.344c0.43-0.348,1.06-0.281,1.406,0.147c0.349,0.429,0.282,1.059-0.146,1.407l-3.174,2.573      l3.18,2.619c0.427,0.351,0.487,0.981,0.136,1.408C36.975,62.876,36.688,63,36.399,63z"/></g><g><path d="M11,17.86c-0.553,0-1-0.448-1-1v-5.847c0-3.663,2.994-6.643,6.674-6.643h13.929c0.553,0,1,0.448,1,1s-0.447,1-1,1      H16.674C14.097,6.371,12,8.453,12,11.013v5.847C12,17.412,11.553,17.86,11,17.86z"/><path d="M27.601,9.741c-0.291,0-0.58-0.126-0.777-0.37c-0.349-0.429-0.282-1.059,0.146-1.407l3.174-2.573l-3.18-2.619      c-0.427-0.351-0.487-0.981-0.136-1.408c0.35-0.426,0.979-0.487,1.407-0.136l4.124,3.397c0.231,0.191,0.365,0.476,0.364,0.776      s-0.137,0.584-0.37,0.773l-4.124,3.344C28.044,9.668,27.821,9.741,27.601,9.741z"/></g><path d="M54,44.646h-2v-2h2V44.646z M54,40.646h-2v-2h2V40.646z M54,36.646h-2v-2h2V36.646z M54,32.646h-2v-2h2V32.646z      M54,28.646h-2v-2h2V28.646z M54,24.646h-2v-2h2V24.646z M54,20.646h-2v-2h2V20.646z M54,16.646h-2v-2h2V16.646z M54,12.646h-2     v-2h2V12.646z M51.719,9.032c-0.189-0.515-0.468-0.992-0.828-1.415l1.525-1.295c0.512,0.604,0.909,1.284,1.18,2.021L51.719,9.032     z M49.627,6.573c-0.48-0.272-1.001-0.455-1.547-0.544l0.324-1.974c0.778,0.128,1.521,0.389,2.207,0.778L49.627,6.573z      M46.248,5.966h-2v-2h2V5.966z M42.248,5.966h-2v-2h2V5.966z M38.248,5.966h-2v-2h2V5.966z M34.248,5.966h-0.851v-2h0.851V5.966z     "/><path d="M31.248,59.629h-1.864v-2h1.864V59.629z M27.384,59.629h-2v-2h2V59.629z M23.384,59.629h-2v-2h2V59.629z M19.384,59.629     h-2v-2h2V59.629z M15.17,59.456c-0.767-0.177-1.49-0.486-2.151-0.918l1.096-1.674c0.463,0.303,0.97,0.52,1.507,0.644     L15.17,59.456z M11.315,56.936c-0.473-0.634-0.825-1.339-1.048-2.096l1.92-0.563c0.154,0.528,0.4,1.02,0.731,1.463L11.315,56.936     z M12,52.581h-2v-2h2V52.581z M12,48.581h-2v-2h2V48.581z M12,44.581h-2v-2h2V44.581z M12,40.581h-2v-2h2V40.581z M12,36.581h-2     v-2h2V36.581z M12,32.581h-2v-2h2V32.581z M12,28.581h-2v-2h2V28.581z M12,24.581h-2v-2h2V24.581z M12,20.581h-2v-2h2V20.581z"/></g><g><path d="M40.238,43.837H23.762c-0.553,0-1-0.448-1-1s0.447-1,1-1h16.477c0.553,0,1,0.448,1,1S40.791,43.837,40.238,43.837z"/><path d="M40.238,38.957H23.762c-0.553,0-1-0.448-1-1s0.447-1,1-1h16.477c0.553,0,1,0.448,1,1S40.791,38.957,40.238,38.957z"/><path d="M40.238,29.196H23.762c-0.553,0-1-0.448-1-1s0.447-1,1-1h16.477c0.553,0,1,0.448,1,1S40.791,29.196,40.238,29.196z"/><path d="M40.238,34.076H23.762c-0.553,0-1-0.448-1-1s0.447-1,1-1h16.477c0.553,0,1,0.448,1,1S40.791,34.076,40.238,34.076z"/></g></g></g></svg>