<svg xmlns="http://www.w3.org/2000/svg" xmlns:xlink="http://www.w3.org/1999/xlink" xml:space="preserve" version="1.1" style="shape-rendering:geometricPrecision;text-rendering:geometricPrecision;image-rendering:optimizeQuality;" viewBox="0 0 302 375" x="0px" y="0px" fill-rule="evenodd" clip-rule="evenodd"><defs><style type="text/css">
   
    .fil0 {fill:black}
   
  </style></defs><g><path class="fil0" d="M33 0c18,0 33,15 33,33 0,18 -15,33 -33,33 -18,0 -33,-15 -33,-33 0,-18 15,-33 33,-33zm206 7c2,-7 13,-3 10,4l-35 90c-2,7 -13,3 -10,-4l35 -90zm-33 121c-7,0 -7,-11 0,-11l21 0 0 -32c0,-7 11,-7 11,0l0 43 -32 0zm-49 169l20 0 0 -102 -20 0 0 102zm125 0l20 0 0 -102 -20 0 0 102zm-114 -157l122 0c7,0 12,5 12,12l0 32 -145 0 0 -32c0,-7 5,-12 11,-12zm-82 160l0 -78 -53 0c-17,0 -31,-14 -31,-32l0 -78c0,-17 14,-32 31,-32l0 0c17,0 31,15 31,32l0 63 46 0c13,0 23,10 23,23l0 102 -47 0z"/></g></svg>